<svg id="visual" viewBox="0 0 960 540" width="960" height="540" xmlns="http://www.w3.org/2000/svg" xmlns:xlink="http://www.w3.org/1999/xlink" version="1.1"><rect x="0" y="0" width="960" height="540" fill="#99b8c8"></rect><path d="M0 330L17.8 344.2C35.7 358.3 71.3 386.7 106.8 397.2C142.3 407.7 177.7 400.3 213.2 388C248.7 375.7 284.3 358.3 320 370.5C355.7 382.7 391.3 424.3 426.8 444.7C462.3 465 497.7 464 533.2 460.8C568.7 457.7 604.3 452.3 640 432.2C675.7 412 711.3 377 746.8 367.8C782.3 358.7 817.7 375.3 853.2 394C888.7 412.7 924.3 433.3 942.2 443.7L960 454L960 541L942.2 541C924.3 541 888.7 541 853.2 541C817.7 541 782.3 541 746.8 541C711.3 541 675.7 541 640 541C604.3 541 568.7 541 533.2 541C497.7 541 462.3 541 426.8 541C391.3 541 355.7 541 320 541C284.3 541 248.7 541 213.2 541C177.7 541 142.3 541 106.8 541C71.3 541 35.7 541 17.8 541L0 541Z" fill="#0066FF" stroke-linecap="round" stroke-linejoin="miter"></path></svg>