<svg id="visual" viewBox="0 0 900 600" width="900" height="600" xmlns="http://www.w3.org/2000/svg" xmlns:xlink="http://www.w3.org/1999/xlink" version="1.1"><path d="M0 97L13.7 94C27.3 91 54.7 85 82 97C109.3 109 136.7 139 163.8 159C191 179 218 189 245.2 176C272.3 163 299.7 127 327 126C354.3 125 381.7 159 409 176C436.3 193 463.7 193 491 198C518.3 203 545.7 213 573 202C600.3 191 627.7 159 654.8 139C682 119 709 111 736.2 120C763.3 129 790.7 155 818 184C845.3 213 872.7 245 886.3 261L900 277L900 0L886.3 0C872.7 0 845.3 0 818 0C790.7 0 763.3 0 736.2 0C709 0 682 0 654.8 0C627.7 0 600.3 0 573 0C545.7 0 518.3 0 491 0C463.7 0 436.3 0 409 0C381.7 0 354.3 0 327 0C299.7 0 272.3 0 245.2 0C218 0 191 0 163.8 0C136.7 0 109.3 0 82 0C54.7 0 27.3 0 13.7 0L0 0Z" fill="#004cbb"></path><path d="M0 223L13.7 212C27.3 201 54.7 179 82 180C109.3 181 136.7 205 163.8 220C191 235 218 241 245.2 237C272.3 233 299.7 219 327 222C354.3 225 381.7 245 409 255C436.3 265 463.7 265 491 265C518.3 265 545.7 265 573 249C600.3 233 627.7 201 654.8 194C682 187 709 205 736.2 223C763.3 241 790.7 259 818 284C845.3 309 872.7 341 886.3 357L900 373L900 275L886.3 259C872.7 243 845.3 211 818 182C790.7 153 763.3 127 736.2 118C709 109 682 117 654.8 137C627.7 157 600.3 189 573 200C545.7 211 518.3 201 491 196C463.7 191 436.3 191 409 174C381.7 157 354.3 123 327 124C299.7 125 272.3 161 245.2 174C218 187 191 177 163.8 157C136.7 137 109.3 107 82 95C54.7 83 27.3 89 13.7 92L0 95Z" fill="#2573ff"></path><path d="M0 397L13.7 398C27.3 399 54.7 401 82 402C109.3 403 136.7 403 163.8 395C191 387 218 371 245.2 369C272.3 367 299.7 379 327 391C354.3 403 381.7 415 409 421C436.3 427 463.7 427 491 425C518.3 423 545.7 419 573 417C600.3 415 627.7 415 654.8 413C682 411 709 407 736.2 414C763.3 421 790.7 439 818 455C845.3 471 872.7 485 886.3 492L900 499L900 371L886.3 355C872.7 339 845.3 307 818 282C790.7 257 763.3 239 736.2 221C709 203 682 185 654.8 192C627.7 199 600.3 231 573 247C545.7 263 518.3 263 491 263C463.7 263 436.3 263 409 253C381.7 243 354.3 223 327 220C299.7 217 272.3 231 245.2 235C218 239 191 233 163.8 218C136.7 203 109.3 179 82 178C54.7 177 27.3 199 13.7 210L0 221Z" fill="#6198ff"></path><path d="M0 541L13.7 545C27.3 549 54.7 557 82 550C109.3 543 136.7 521 163.8 515C191 509 218 519 245.2 519C272.3 519 299.7 509 327 514C354.3 519 381.7 539 409 539C436.3 539 463.7 519 491 513C518.3 507 545.7 515 573 519C600.3 523 627.7 523 654.8 527C682 531 709 539 736.2 536C763.3 533 790.7 519 818 521C845.3 523 872.7 541 886.3 550L900 559L900 497L886.3 490C872.7 483 845.3 469 818 453C790.7 437 763.3 419 736.2 412C709 405 682 409 654.8 411C627.7 413 600.3 413 573 415C545.7 417 518.3 421 491 423C463.7 425 436.3 425 409 419C381.7 413 354.3 401 327 389C299.7 377 272.3 365 245.2 367C218 369 191 385 163.8 393C136.7 401 109.3 401 82 400C54.7 399 27.3 397 13.7 396L0 395Z" fill="#2573ff"></path><path d="M0 601L13.7 601C27.3 601 54.7 601 82 601C109.3 601 136.7 601 163.8 601C191 601 218 601 245.2 601C272.3 601 299.7 601 327 601C354.3 601 381.7 601 409 601C436.3 601 463.7 601 491 601C518.3 601 545.7 601 573 601C600.3 601 627.7 601 654.8 601C682 601 709 601 736.2 601C763.3 601 790.7 601 818 601C845.3 601 872.7 601 886.3 601L900 601L900 557L886.3 548C872.7 539 845.3 521 818 519C790.7 517 763.3 531 736.2 534C709 537 682 529 654.8 525C627.7 521 600.3 521 573 517C545.7 513 518.3 505 491 511C463.7 517 436.3 537 409 537C381.7 537 354.3 517 327 512C299.7 507 272.3 517 245.2 517C218 517 191 507 163.8 513C136.7 519 109.3 541 82 548C54.7 555 27.3 547 13.7 543L0 539Z" fill="#004cbb"></path></svg>